<?xml version="1.0" encoding="UTF-8" standalone="no"?><!DOCTYPE svg PUBLIC "-//W3C//DTD SVG 1.1//EN" "http://www.w3.org/Graphics/SVG/1.1/DTD/svg11.dtd"><svg width="100%" height="100%" viewBox="0 0 836 837" version="1.1" xmlns="http://www.w3.org/2000/svg" xmlns:xlink="http://www.w3.org/1999/xlink" xml:space="preserve" style="fill-rule:evenodd;clip-rule:evenodd;stroke-linejoin:round;stroke-miterlimit:1.41421;"><g><path d="M743.715,0c50.696,0.049 91.843,41.225 91.843,91.842l0,652.488c0,50.647 -41.196,91.842 -91.843,91.842l-651.89,0c-50.647,0 -91.825,-41.195 -91.825,-91.842l0,-652.488c0,-50.617 41.129,-91.793 91.825,-91.842l651.89,0Zm0.018,801.02c31.236,-0.054 56.69,-25.541 56.69,-56.69l0,-652.488c0,-31.2 -25.508,-56.707 -56.69,-56.707l-651.908,0c-31.182,0 -56.708,25.507 -56.708,56.707l0,652.488c0,31.182 25.526,56.69 56.708,56.69l651.908,0Z" style="fill:#1a9ed9;"/><path d="M341.308,627.754l0,88.083l53.967,-67.335l-53.967,-20.748Z" style="fill:#1fbaed;"/><path d="M341.308,373.04l0,59.061l57.024,-41.634l-57.024,-17.427Z" style="fill:#ace1fa;"/><path d="M341.308,285.024l0,67.423l61.17,18.692l-73.045,-220.049l-9.75,0l-107.337,133.934l128.962,0Z" style="fill:#1a9ed9;"/><path d="M408.482,407.458l-67.177,49.065l0,150.131l58.657,22.539l8.52,-221.735Z" style="fill:#1a9ed9;"/><path d="M419.706,629.868l80.09,-30.778l0,-142.718l-71.412,-52.156l-8.678,225.652Z" style="fill:#1fbaed;"/><path d="M617.859,285.024l34.836,0l101.979,-127.241l0,-6.693l-213.092,0l76.277,133.934Z" style="fill:#1a9ed9;"/><path d="M499.798,732.771l0,-112.59l-73.485,28.249l73.485,84.341Z" style="fill:#ace1fa;"/><path d="M677.984,285.024l76.699,0l0,-95.69l-76.699,95.69Z" style="fill:#1fbaed;"/><path d="M86.425,197.932l0,87.099l49.61,0l-49.61,-87.099Z" style="fill:#1fbaed;"/><path d="M158.748,285.024l28.301,0l107.354,-133.934l-207.98,0l0,6.939l72.325,126.995Z" style="fill:#ace1fa;"/><path d="M410.815,660.675l-69.514,86.712l0,56.496l158.493,0l0,-41.072l-88.979,-102.136Z" style="fill:#1a9ed9;"/><path d="M448.831,394.742l50.963,37.226l0,-52.79l-50.963,15.564Z" style="fill:#1a9ed9;"/><path d="M499.798,358.58l0,-73.555l95.338,0l-76.278,-133.933l-4.058,0l-73.467,225.354l58.465,-17.866Z" style="fill:#ace1fa;"/><path d="M494.021,151.093l-143.771,0l72.536,218.504l71.235,-218.504Z" style="fill:#1fbaed;"/></g></svg>